<svg width="32" height="32" xmlns="http://www.w3.org/2000/svg">

 <g>
  <title>background</title>
  <rect fill="none" id="canvas_background" height="402" width="582" y="-1" x="-1"/>
 </g>
 <g>
  <title>Layer 1</title>
  <rect id="svg_1" width="32" height="32" fill="none"/>
  <path fill="#e5d80e" id="svg_2" d="m8,6l0,6l-8,-6l0,20l8,-6l0,6l6.523,0c1.236,3.493 4.558,5.998 8.477,6c3.917,-0.002 7.239,-2.507 8.477,-6l0.523,0l0,-20l-24,0zm15,23.883c-3.801,-0.009 -6.876,-3.084 -6.885,-6.883c0.009,-3.801 3.084,-6.876 6.885,-6.885c3.799,0.009 6.874,3.084 6.883,6.885c-0.009,3.799 -3.084,6.874 -6.883,6.883z"/>
  <polygon fill="#e5d80e" id="svg_4" points="28,22 24.002,22 24.002,18 22,18 22,22 18,22 18,24 22,24 22,28 24.002,28 24.002,24 28,24   "/>
 </g>
</svg>